<svg width="100" height="100" viewBox="0 0 100 100" fill="none" xmlns="http://www.w3.org/2000/svg">
<rect opacity="0.25" width="100" height="100" rx="20.8955" fill="#C7D3FF"/>
<path d="M72.6843 59.1382C72.1453 58.5982 71.4894 58.3285 70.7181 58.3285H54.7309C54.3263 59.408 53.6465 60.2947 52.6923 60.9886C51.7376 61.6827 50.6727 62.0299 49.4969 62.0299C48.3211 62.0299 47.2558 61.6826 46.3017 60.9886C45.3472 60.2947 44.6679 59.4081 44.263 58.3285H28.1493C27.3783 58.3285 26.7228 58.5982 26.1828 59.1382C25.6429 59.6776 25.3731 60.333 25.3731 61.1044V70.3585C25.3731 71.1293 25.6429 71.7856 26.1828 72.3245C26.7227 72.8643 27.3782 73.134 28.1493 73.134H70.7185C71.4894 73.134 72.1453 72.8643 72.6846 72.3245C73.2247 71.7849 73.4943 71.1293 73.4943 70.3585V61.1044C73.4943 60.333 73.2247 59.6783 72.6843 59.1382ZM61.8405 68.8836C61.4737 69.2499 61.0397 69.4334 60.5385 69.4334C60.0372 69.4334 59.6038 69.2499 59.2372 68.8836C58.8711 68.5176 58.6881 68.0836 58.6881 67.5823C58.6881 67.081 58.8711 66.6467 59.2372 66.281C59.6038 65.915 60.0372 65.7312 60.5385 65.7312C61.0397 65.7312 61.4736 65.9149 61.8405 66.281C62.2064 66.6466 62.3896 67.081 62.3896 67.5823C62.3896 68.0836 62.2064 68.5175 61.8405 68.8836ZM69.2432 68.8836C68.8772 69.2499 68.4432 69.4334 67.9418 69.4334C67.4406 69.4334 67.007 69.2499 66.6405 68.8836C66.2746 68.5176 66.0915 68.0836 66.0915 67.5823C66.0915 67.081 66.2746 66.6467 66.6405 66.281C67.0069 65.915 67.4405 65.7312 67.9418 65.7312C68.4431 65.7312 68.8771 65.9149 69.2432 66.281C69.6096 66.6466 69.7929 67.081 69.7929 67.5823C69.7929 68.0836 69.6099 68.5175 69.2432 68.8836Z" fill="#7C8298"/>
<path d="M62.3906 41.6736H54.9873V28.7176C54.9873 28.2164 54.8041 27.7824 54.4379 27.4163C54.0716 27.0503 53.6377 26.8666 53.1366 26.8666L45.7327 26.8666C45.2315 26.8666 44.798 27.0502 44.4314 27.4163C44.0653 27.7823 43.8823 28.2163 43.8823 28.7176V41.6736H36.4788C35.6688 41.6736 35.0999 42.0595 34.7727 42.8304C34.4448 43.5822 34.58 44.2475 35.1775 44.8259L48.1336 57.7818C48.4809 58.1482 48.9141 58.3314 49.4349 58.3314C49.9551 58.3314 50.3889 58.1482 50.7361 57.7818L63.6918 44.8259C64.2896 44.2475 64.4244 43.5826 64.0969 42.8304C63.7688 42.0591 63.2001 41.6736 62.3906 41.6736Z" fill="white"/>
</svg>
