<svg width="100" height="100" viewBox="0 0 100 100" fill="none" xmlns="http://www.w3.org/2000/svg">
<rect opacity="0.25" width="100" height="100" rx="20.8955" fill="#C7D3FF"/>
<path d="M72.6843 59.1387C72.1453 58.5987 71.4894 58.329 70.7181 58.329H58.3697C57.9652 59.4084 57.2854 60.2951 56.3311 60.9891C55.3765 61.6831 54.3116 62.0304 53.1358 62.0304H45.7318C44.5559 62.0304 43.4907 61.683 42.5366 60.9891C41.5821 60.2951 40.9028 59.4085 40.4979 58.329H28.1493C27.3783 58.329 26.7228 58.5987 26.1828 59.1387C25.6429 59.6781 25.3731 60.3335 25.3731 61.1049V70.359C25.3731 71.1298 25.6429 71.786 26.1828 72.325C26.7227 72.8648 27.3782 73.1344 28.1493 73.1344H70.7185C71.4894 73.1344 72.1453 72.8648 72.6846 72.325C73.2247 71.7853 73.4943 71.1298 73.4943 70.359V61.1049C73.4943 60.3335 73.2247 59.6788 72.6843 59.1387ZM61.8405 68.884C61.4737 69.2504 61.0398 69.4339 60.5385 69.4339C60.0372 69.4339 59.6039 69.2504 59.2372 68.884C58.8711 68.5181 58.6881 68.084 58.6881 67.5828C58.6881 67.0815 58.8711 66.6472 59.2372 66.2815C59.6039 65.9155 60.0372 65.7317 60.5385 65.7317C61.0398 65.7317 61.4736 65.9154 61.8405 66.2815C62.2064 66.6471 62.3896 67.0815 62.3896 67.5828C62.3896 68.084 62.2064 68.518 61.8405 68.884ZM69.2432 68.884C68.8772 69.2504 68.4432 69.4339 67.9418 69.4339C67.4406 69.4339 67.007 69.2504 66.6405 68.884C66.2746 68.5181 66.0915 68.084 66.0915 67.5828C66.0915 67.0815 66.2746 66.6472 66.6405 66.2815C67.0069 65.9155 67.4405 65.7317 67.9418 65.7317C68.4431 65.7317 68.8771 65.9154 69.2432 66.2815C69.6096 66.6471 69.7929 67.0815 69.7929 67.5828C69.7929 68.084 69.6099 68.518 69.2432 68.884Z" fill="#7C8298"/>
<path d="M36.4787 43.524H43.882V56.4801C43.882 56.9813 44.0652 57.4152 44.4314 57.7814C44.7978 58.1473 45.2316 58.3311 45.7327 58.3311H53.1367C53.6379 58.3311 54.0713 58.1474 54.438 57.7814C54.804 57.4153 54.987 56.9814 54.987 56.4801V43.524H62.3905C63.2005 43.524 63.7694 43.1382 64.0967 42.3672C64.4245 41.6155 64.2893 40.9502 63.6918 40.3717L50.7358 27.4158C50.3884 27.0494 49.9552 26.8662 49.4345 26.8662C48.9142 26.8662 48.4804 27.0494 48.1332 27.4158L35.1775 40.3717C34.5797 40.9502 34.4449 41.615 34.7725 42.3672C35.1006 43.1386 35.6692 43.524 36.4787 43.524Z" fill="white"/>
</svg>
