<svg width="106" height="44" viewBox="0 0 106 44" fill="none" xmlns="http://www.w3.org/2000/svg">
<path d="M32.5566 6.55703V18.3439H31.3232C31.0284 18.3439 30.8423 18.2004 30.7647 17.9134L30.6018 16.6451C30.0898 17.2113 29.5158 17.669 28.8797 18.0181C28.2436 18.3594 27.5145 18.53 26.6922 18.53C26.0484 18.53 25.4783 18.4253 24.9818 18.2159C24.4931 17.9987 24.082 17.6962 23.7484 17.3083C23.4149 16.9205 23.1628 16.4512 22.9921 15.9004C22.8292 15.3497 22.7478 14.7407 22.7478 14.0736V6.55703H24.8189V14.0736C24.8189 14.9657 25.0206 15.6561 25.424 16.1447C25.8351 16.6334 26.4595 16.8778 27.2973 16.8778C27.9101 16.8778 28.4802 16.7343 29.0077 16.4473C29.5429 16.1525 30.0355 15.7491 30.4854 15.2372V6.55703H32.5566ZM39.9246 18.53C38.9938 18.53 38.2762 18.2702 37.772 17.7505C37.2756 17.2307 37.0273 16.4822 37.0273 15.5048V8.29073H35.6078C35.4837 8.29073 35.379 8.25583 35.2936 8.18601C35.2083 8.10844 35.1657 7.99209 35.1657 7.83695V7.01082L37.0972 6.76647L37.5742 3.12454C37.5975 3.00818 37.6479 2.9151 37.7255 2.84529C37.8108 2.76772 37.9194 2.72893 38.0513 2.72893H39.0985V6.78975H42.5077V8.29073H39.0985V15.3652C39.0985 15.8616 39.2187 16.2301 39.4592 16.4705C39.6997 16.711 40.0099 16.8312 40.39 16.8312C40.6072 16.8312 40.7934 16.8041 40.9485 16.7498C41.1114 16.6877 41.2511 16.6218 41.3674 16.552C41.4838 16.4822 41.5807 16.4201 41.6583 16.3658C41.7436 16.3038 41.8173 16.2727 41.8794 16.2727C41.988 16.2727 42.0849 16.3387 42.1703 16.4705L42.7753 17.4596C42.4185 17.7931 41.988 18.0569 41.4838 18.2508C40.9796 18.437 40.4598 18.53 39.9246 18.53ZM47.0781 8.91906C47.4505 8.11232 47.9081 7.484 48.4511 7.03409C48.9941 6.57643 49.6573 6.34759 50.4408 6.34759C50.689 6.34759 50.9256 6.37474 51.1506 6.42904C51.3833 6.48334 51.5888 6.56867 51.7673 6.68502L51.616 8.23256C51.5695 8.42648 51.4531 8.52345 51.2669 8.52345C51.1583 8.52345 50.9993 8.50017 50.7899 8.45363C50.5804 8.40709 50.3438 8.38382 50.0801 8.38382C49.7078 8.38382 49.3742 8.43812 49.0794 8.54672C48.7924 8.65532 48.5326 8.81821 48.2999 9.03541C48.0749 9.24485 47.8693 9.50859 47.6832 9.82663C47.5048 10.1369 47.3419 10.4937 47.1945 10.8971V18.3439H45.1117V6.55703H46.2985C46.5235 6.55703 46.6786 6.5997 46.764 6.68502C46.8493 6.77035 46.9075 6.91774 46.9385 7.12718L47.0781 8.91906ZM61.4655 11.1647C61.4655 10.6838 61.3957 10.2455 61.2561 9.8499C61.1242 9.44653 60.9264 9.10135 60.6627 8.81434C60.4067 8.51957 60.0925 8.29461 59.7202 8.13947C59.3478 7.97657 58.9251 7.89512 58.4519 7.89512C57.459 7.89512 56.6717 8.18601 56.0899 8.76779C55.5159 9.34182 55.159 10.1408 55.0194 11.1647H61.4655ZM63.141 16.6916C62.8851 17.0019 62.5786 17.2734 62.2218 17.5061C61.865 17.7311 61.481 17.9172 61.0699 18.0646C60.6665 18.212 60.2477 18.3206 59.8133 18.3904C59.3789 18.468 58.9483 18.5068 58.5217 18.5068C57.7072 18.5068 56.9548 18.371 56.2644 18.0995C55.5818 17.8203 54.9884 17.4169 54.4842 16.8894C53.9877 16.3542 53.5999 15.6948 53.3206 14.9114C53.0414 14.1279 52.9017 13.2281 52.9017 12.2119C52.9017 11.3897 53.0258 10.6217 53.2741 9.90808C53.53 9.19443 53.8946 8.57775 54.3678 8.05802C54.841 7.53054 55.4189 7.11942 56.1015 6.82465C56.7841 6.52213 57.5521 6.37086 58.4054 6.37086C59.1112 6.37086 59.7628 6.4911 60.3601 6.73157C60.9652 6.96428 61.4849 7.30559 61.9193 7.7555C62.3615 8.19765 62.7066 8.7484 62.9549 9.40775C63.2031 10.0593 63.3272 10.804 63.3272 11.6418C63.3272 11.9676 63.2923 12.1848 63.2225 12.2934C63.1527 12.402 63.0208 12.4563 62.8269 12.4563H54.9496C54.9729 13.2009 55.0737 13.8487 55.2521 14.3994C55.4383 14.9502 55.6943 15.4117 56.0201 15.784C56.3459 16.1486 56.7337 16.424 57.1836 16.6102C57.6335 16.7886 58.1377 16.8778 58.6962 16.8778C59.216 16.8778 59.662 16.8196 60.0343 16.7033C60.4144 16.5791 60.7402 16.4473 61.0117 16.3076C61.2832 16.168 61.5082 16.04 61.6866 15.9237C61.8728 15.7996 62.0318 15.7375 62.1636 15.7375C62.3343 15.7375 62.4662 15.8034 62.5593 15.9353L63.141 16.6916Z" fill="#D8D8D8"/>
<path d="M42.7716 38.8715C42.9304 38.8715 43.0671 38.9333 43.1818 39.0568L44.2934 40.2742C43.517 41.1918 42.5686 41.9019 41.4482 42.4048C40.3366 42.9077 38.9956 43.1591 37.4253 43.1591C36.049 43.1591 34.8006 42.9209 33.6802 42.4445C32.5686 41.9681 31.6158 41.302 30.8218 40.4463C30.0366 39.5905 29.4279 38.5671 28.9956 37.3761C28.5633 36.1851 28.3471 34.875 28.3471 33.4458C28.3471 32.0166 28.5721 30.7065 29.022 29.5155C29.4808 28.3245 30.1204 27.3011 30.9409 26.4453C31.7614 25.5896 32.7406 24.9235 33.8787 24.4471C35.0256 23.9707 36.2916 23.7325 37.6767 23.7325C39.0265 23.7325 40.2263 23.953 41.2762 24.3941C42.326 24.8353 43.2391 25.4219 44.0155 26.1542L43.0892 27.4643C43.0274 27.5613 42.948 27.6407 42.851 27.7025C42.7627 27.7642 42.6436 27.7951 42.4937 27.7951C42.326 27.7951 42.1275 27.7113 41.8982 27.5437C41.6776 27.3761 41.3821 27.1908 41.0115 26.9879C40.6498 26.7762 40.1999 26.5865 39.6617 26.4188C39.1235 26.2512 38.4531 26.1674 37.6502 26.1674C36.7062 26.1674 35.8417 26.335 35.0565 26.6703C34.2713 26.9967 33.592 27.4731 33.0185 28.0995C32.4539 28.7171 32.0128 29.4802 31.6952 30.3889C31.3864 31.2887 31.232 32.3077 31.232 33.4458C31.232 34.6015 31.3952 35.6293 31.7217 36.5292C32.0481 37.4291 32.498 38.1922 33.0715 38.8186C33.6449 39.4449 34.3198 39.9213 35.0962 40.2478C35.8725 40.5742 36.7107 40.7374 37.6105 40.7374C38.1575 40.7374 38.6471 40.7065 39.0794 40.6448C39.5206 40.5742 39.922 40.4727 40.2837 40.3404C40.6542 40.2081 41.0027 40.0404 41.3291 39.8375C41.6555 39.6258 41.9776 39.3744 42.2952 39.0832C42.3657 39.0215 42.4407 38.973 42.5201 38.9377C42.5995 38.8936 42.6833 38.8715 42.7716 38.8715ZM50.0371 23.4149V42.9474H47.4434V23.4149H50.0371ZM63.4229 34.7294C63.4229 34.2177 63.3479 33.7458 63.198 33.3135C63.0568 32.8812 62.8451 32.5062 62.5628 32.1886C62.2804 31.871 61.9364 31.624 61.5305 31.4475C61.1247 31.2711 60.6571 31.1829 60.1278 31.1829C59.0427 31.1829 58.1869 31.4961 57.5605 32.1225C56.943 32.7488 56.5504 33.6178 56.3827 34.7294H63.4229ZM65.5535 41.0285C65.2359 41.3991 64.8698 41.7211 64.4551 41.9946C64.0405 42.2592 63.5994 42.4754 63.1318 42.643C62.6642 42.8106 62.179 42.9342 61.6761 43.0136C61.1821 43.093 60.6924 43.1327 60.2072 43.1327C59.2809 43.1327 58.4207 42.9783 57.6267 42.6695C56.8415 42.3519 56.1578 41.8931 55.5755 41.2932C55.0021 40.6845 54.5521 39.9346 54.2257 39.0435C53.9081 38.1437 53.7493 37.1115 53.7493 35.9469C53.7493 35.0117 53.8949 34.1428 54.186 33.3399C54.4771 32.5283 54.8918 31.8225 55.4299 31.2226C55.9769 30.6227 56.643 30.1507 57.4282 29.8066C58.2134 29.4625 59.0956 29.2905 60.0749 29.2905C60.8953 29.2905 61.6496 29.4272 62.3378 29.7007C63.0347 29.9654 63.6347 30.3536 64.1375 30.8653C64.6404 31.377 65.033 32.0078 65.3153 32.7577C65.6064 33.5075 65.752 34.3633 65.752 35.3249C65.752 35.7219 65.7079 35.991 65.6197 36.1322C65.5315 36.2645 65.3682 36.3307 65.13 36.3307H56.3166C56.343 37.1335 56.4577 37.8349 56.6607 38.4348C56.8636 39.0259 57.1415 39.5199 57.4944 39.9169C57.8561 40.3139 58.284 40.6095 58.778 40.8036C59.272 40.9977 59.8234 41.0947 60.4322 41.0947C61.0056 41.0947 61.4997 41.0285 61.9143 40.8962C62.3378 40.7639 62.6995 40.6227 62.9995 40.4727C63.3082 40.3139 63.5641 40.1684 63.767 40.036C63.9787 39.9037 64.164 39.8375 64.3228 39.8375C64.5345 39.8375 64.6977 39.9169 64.8124 40.0757L65.5535 41.0285ZM71.7546 32.0828C72.1869 31.2005 72.7074 30.508 73.3161 30.0051C73.9249 29.5022 74.6571 29.2508 75.5129 29.2508C75.804 29.2508 76.0775 29.2861 76.3334 29.3567C76.598 29.4184 76.8274 29.5155 77.0215 29.6478L76.8495 31.5931C76.7877 31.8313 76.6421 31.9504 76.4128 31.9504C76.2893 31.9504 76.104 31.9284 75.857 31.8843C75.6099 31.8313 75.3453 31.8049 75.063 31.8049C74.6483 31.8049 74.2822 31.8666 73.9646 31.9901C73.647 32.1048 73.3603 32.2813 73.1044 32.5195C72.8574 32.7488 72.6368 33.0356 72.4427 33.3796C72.2487 33.7149 72.0678 34.0986 71.9002 34.5309V42.9474H69.3197V29.5022H70.8018C71.0841 29.5022 71.2738 29.5552 71.3708 29.661C71.4767 29.7581 71.5517 29.9345 71.5958 30.1904L71.7546 32.0828ZM82.3866 23.4149V34.8353H82.9954C83.1806 34.8353 83.335 34.8088 83.4585 34.7559C83.582 34.703 83.71 34.5971 83.8423 34.4383L87.8653 30.0051C87.9888 29.8375 88.1255 29.714 88.2755 29.6346C88.4255 29.5463 88.6151 29.5022 88.8445 29.5022H91.2001L86.4493 34.703C86.1934 35.0294 85.9199 35.2808 85.6288 35.4573C85.7964 35.572 85.942 35.7043 86.0655 35.8543C86.1978 36.0043 86.3258 36.1675 86.4493 36.3439L91.5044 42.9474H89.1886C88.9769 42.9474 88.7916 42.9121 88.6328 42.8415C88.4828 42.7709 88.3461 42.643 88.2226 42.4578L84.0673 37.0585C83.9349 36.8556 83.8026 36.7277 83.6703 36.6747C83.5379 36.613 83.3394 36.5821 83.0748 36.5821H82.3866V42.9474H79.8061V23.4149H82.3866Z" fill="#D8D8D8"/>
<path d="M90.7186 8.65339C90.6565 8.73872 90.5945 8.80465 90.5324 8.8512C90.4703 8.89774 90.385 8.92101 90.2764 8.92101C90.1601 8.92101 90.0321 8.87447 89.8924 8.78138C89.7528 8.68054 89.5783 8.57194 89.3688 8.45559C89.1672 8.33923 88.9151 8.23451 88.6125 8.14143C88.3178 8.04058 87.9532 7.99016 87.5188 7.99016C86.937 7.99016 86.425 8.09488 85.9829 8.30432C85.5407 8.50601 85.1684 8.80077 84.8659 9.18863C84.5711 9.57648 84.3462 10.0458 84.191 10.5965C84.0436 11.1473 83.9699 11.764 83.9699 12.4466C83.9699 13.1602 84.0514 13.7963 84.2143 14.3548C84.3772 14.9056 84.606 15.371 84.9008 15.7511C85.2033 16.1234 85.564 16.4104 85.9829 16.6121C86.4095 16.8061 86.8866 16.903 87.4141 16.903C87.9183 16.903 88.3333 16.8448 88.6591 16.7285C88.9849 16.6044 89.2525 16.4686 89.4619 16.3212C89.6791 16.1739 89.8575 16.042 89.9972 15.9256C90.1446 15.8015 90.2881 15.7395 90.4277 15.7395C90.5983 15.7395 90.7302 15.8054 90.8233 15.9373L91.4051 16.6936C91.1491 17.0116 90.8582 17.2831 90.5324 17.5081C90.2066 17.733 89.8537 17.9231 89.4736 18.0782C89.1012 18.2256 88.7095 18.3342 88.2984 18.404C87.8873 18.4738 87.4684 18.5087 87.0417 18.5087C86.3048 18.5087 85.6183 18.373 84.9822 18.1015C84.3539 17.83 83.807 17.4383 83.3416 16.9263C82.8762 16.4066 82.5116 15.7705 82.2479 15.0181C81.9841 14.2656 81.8523 13.4085 81.8523 12.4466C81.8523 11.57 81.9725 10.7594 82.213 10.0148C82.4612 9.27008 82.818 8.63012 83.2834 8.09488C83.7566 7.55189 84.3345 7.12913 85.0171 6.8266C85.7075 6.52408 86.4987 6.37282 87.3908 6.37282C88.2208 6.37282 88.95 6.50857 89.5783 6.78006C90.2144 7.0438 90.7768 7.42002 91.2654 7.90871L90.7186 8.65339ZM96.1766 8.12979C96.6808 7.59455 97.2393 7.16792 97.8521 6.84988C98.4649 6.53184 99.1708 6.37282 99.9698 6.37282C100.614 6.37282 101.18 6.48142 101.669 6.69861C102.165 6.90805 102.576 7.21058 102.902 7.60619C103.235 7.99404 103.488 8.46334 103.658 9.01409C103.829 9.56484 103.914 10.1738 103.914 10.8409V18.3458H101.831V10.8409C101.831 9.94882 101.626 9.25844 101.215 8.76975C100.811 8.2733 100.195 8.02507 99.3647 8.02507C98.7519 8.02507 98.1779 8.17245 97.6427 8.46722C97.1152 8.76199 96.6265 9.16148 96.1766 9.66569V18.3458H94.0938V1.20662H96.1766V8.12979Z" fill="#D8D8D8"/>
<path d="M74.3045 10.4482C74.1042 10.4106 73.8976 10.3918 73.6848 10.3918C73.2967 10.3918 72.9336 10.4764 72.5956 10.6454C72.2575 10.8144 71.9633 11.0429 71.7129 11.3308C71.4688 11.6188 71.2748 11.9505 71.1308 12.3261C70.9868 12.6954 70.9148 13.0804 70.9148 13.481C70.9148 13.8817 70.9993 14.1947 71.1683 14.42C71.3436 14.6391 71.5971 14.7487 71.9289 14.7487C72.0917 14.7487 72.2544 14.7236 72.4172 14.6735C72.5862 14.6235 72.7458 14.5358 72.896 14.4106C73.0463 14.2792 73.184 14.107 73.3092 13.8942C73.4344 13.6814 73.5377 13.4153 73.619 13.0961L74.3045 10.4482ZM75.4031 12.8519C75.3029 13.2526 75.2528 13.5812 75.2528 13.8379C75.2591 14.0882 75.2998 14.2886 75.3749 14.4388C75.45 14.5828 75.5564 14.6829 75.6942 14.7393C75.8319 14.7956 75.9884 14.8238 76.1636 14.8238C76.4266 14.8238 76.6738 14.7424 76.9054 14.5796C77.1433 14.4106 77.3499 14.1759 77.5251 13.8754C77.7004 13.5749 77.8381 13.2181 77.9383 12.805C78.0447 12.3918 78.0979 11.9411 78.0979 11.4529C78.0979 10.6391 77.9696 9.92236 77.7129 9.30264C77.4626 8.68292 77.1089 8.16649 76.6519 7.75334C76.1949 7.33394 75.6503 7.02095 75.0181 6.81438C74.3921 6.60155 73.7036 6.49513 72.9524 6.49513C72.1261 6.49513 71.3624 6.65162 70.6613 6.96461C69.9602 7.27134 69.3499 7.69388 68.8303 8.23222C68.317 8.77056 67.9133 9.40593 67.619 10.1383C67.3311 10.8707 67.1871 11.6594 67.1871 12.5045C67.1871 13.5311 67.3467 14.4357 67.666 15.2181C67.9852 15.9943 68.4234 16.6454 68.9805 17.1712C69.5377 17.6907 70.1918 18.082 70.943 18.3449C71.7004 18.6078 72.5173 18.7393 73.3937 18.7393C73.8757 18.7393 74.3264 18.7111 74.7458 18.6548C75.1652 18.6047 75.5502 18.5327 75.9007 18.4388C76.2513 18.3512 76.5705 18.2479 76.8585 18.1289C77.1464 18.0163 77.4031 17.8942 77.6284 17.7627C77.7912 17.6688 77.9352 17.6407 78.0604 17.6782C78.1856 17.7158 78.2763 17.8097 78.3327 17.9599L78.6519 18.7956C78.0009 19.2213 77.2403 19.5687 76.3702 19.8379C75.5001 20.107 74.5079 20.2416 73.3937 20.2416C72.2607 20.2416 71.2122 20.0632 70.2482 19.7064C69.2841 19.3496 68.4485 18.8363 67.7411 18.1665C67.04 17.503 66.4892 16.6923 66.0885 15.7346C65.6942 14.7768 65.497 13.7001 65.497 12.5045C65.497 11.8347 65.5815 11.1837 65.7505 10.5515C65.9258 9.91923 66.173 9.32768 66.4923 8.77682C66.8115 8.2197 67.1965 7.70953 67.6472 7.2463C68.0979 6.78308 68.5987 6.38558 69.1496 6.05381C69.7004 5.72205 70.2951 5.46539 70.9336 5.28386C71.5784 5.09607 72.2513 5.00217 72.9524 5.00217C73.8413 5.00217 74.6926 5.15241 75.5064 5.45287C76.3264 5.74708 77.0494 6.17275 77.6754 6.72987C78.3076 7.28073 78.8115 7.95679 79.1871 8.75804C79.5627 9.55303 79.7505 10.4513 79.7505 11.4529C79.7505 12.1227 79.6503 12.7518 79.45 13.3402C79.256 13.9224 78.9805 14.4294 78.6237 14.8613C78.2732 15.2933 77.8569 15.6344 77.3749 15.8848C76.8992 16.1289 76.3796 16.251 75.8162 16.251C75.3843 16.251 75.0025 16.1508 74.6707 15.9505C74.3389 15.7502 74.1104 15.4278 73.9852 14.9834C73.6159 15.4341 73.2247 15.7565 72.8115 15.9505C72.3984 16.1446 71.9508 16.2416 71.4688 16.2416C71.0744 16.2416 70.7302 16.1728 70.4359 16.035C70.148 15.8973 69.9039 15.7095 69.7036 15.4717C69.5095 15.2275 69.3624 14.9427 69.2622 14.6172C69.1683 14.2854 69.1214 13.9255 69.1214 13.5374C69.1214 13.1806 69.1652 12.8206 69.2528 12.4576C69.3467 12.0882 69.4845 11.7346 69.666 11.3965C69.8475 11.0523 70.0729 10.733 70.342 10.4388C70.6175 10.1383 70.9367 9.87854 71.2998 9.65945C71.6691 9.4341 72.0823 9.25882 72.5392 9.13363C73.0025 9.00217 73.5095 8.93644 74.0604 8.93644C74.5486 8.93644 74.9649 8.974 75.3092 9.04912C75.6535 9.12424 75.9852 9.23065 76.3045 9.36837L75.4031 12.8519Z" fill="#D8D8D8"/>
<g clip-path="url(#clip0_1_65)">
<path d="M21.1571 10.7878C21.1571 16.2894 16.692 20.7507 11.1824 20.7507C5.67275 20.7507 1.20768 16.2894 1.20768 10.7878C1.20768 5.28626 5.67275 0.824986 11.1824 0.824986C16.692 0.824986 21.1571 5.28626 21.1571 10.7878Z" fill="#D8D8D8" stroke="#A4A4A4" stroke-width="1.43342"/>
<path d="M12.3078 9.66215C11.7263 9.08132 10.9436 8.74597 10.1214 8.72547C9.29935 8.70497 8.5008 9.00089 7.891 9.55202L7.77497 9.66215L5.96208 11.4737C5.37165 12.0645 5.03559 12.8623 5.02552 13.6971C5.01546 14.5318 5.33219 15.3375 5.9082 15.9423C6.48422 16.5472 7.27396 16.9034 8.10909 16.935C8.94422 16.9666 9.7587 16.6712 10.3789 16.1117L10.4943 16.0015L11.8546 14.6427C11.9696 14.5275 12.0363 14.3729 12.0413 14.2102C12.0463 14.0476 11.9891 13.8892 11.8814 13.7672C11.7737 13.6452 11.6235 13.5687 11.4613 13.5532C11.2992 13.5378 11.1373 13.5846 11.0084 13.6841L10.9482 13.7373L9.58786 15.0961C9.23523 15.4504 8.75831 15.6535 8.25824 15.6624C7.75818 15.6713 7.27432 15.4852 6.9093 15.1437C6.54429 14.8021 6.32683 14.332 6.30306 13.833C6.27929 13.3339 6.45108 12.8453 6.78198 12.4707L6.86852 12.3791L8.68141 10.5682C8.86 10.3898 9.07202 10.2483 9.30537 10.1517C9.53872 10.0552 9.78882 10.0055 10.0414 10.0055C10.294 10.0055 10.5441 10.0552 10.7774 10.1517C11.0108 10.2483 11.2228 10.3898 11.4014 10.5682C11.5217 10.6883 11.6848 10.7557 11.8548 10.7557C12.0249 10.7556 12.188 10.6881 12.3082 10.5679C12.4284 10.4478 12.4959 10.2848 12.4958 10.115C12.4957 9.94511 12.4281 9.78222 12.3078 9.66215ZM16.3875 5.58703C15.806 5.0062 15.0232 4.67085 14.2011 4.65035C13.379 4.62985 12.5804 4.92577 11.9706 5.47689L11.8546 5.58703L10.4949 6.94647C10.38 7.06171 10.3132 7.21633 10.3083 7.37895C10.3033 7.54156 10.3605 7.69997 10.4682 7.822C10.5759 7.94402 10.7261 8.02052 10.8882 8.03595C11.0503 8.05137 11.2123 8.00458 11.3411 7.90506L11.4014 7.85191L12.7611 6.49375C13.1143 6.1432 13.5899 5.94317 14.0877 5.93574C14.5856 5.92831 15.067 6.11406 15.4305 6.45391C15.7941 6.79377 16.0115 7.26123 16.0371 7.75795C16.0626 8.25467 15.8943 8.74193 15.5676 9.11722L15.481 9.20943L13.6675 11.021C13.3069 11.3811 12.8178 11.5834 12.3078 11.5834C11.7979 11.5834 11.3088 11.3811 10.9482 11.021C10.8886 10.9615 10.818 10.9143 10.7402 10.882C10.6624 10.8498 10.5791 10.8332 10.4948 10.8332C10.4106 10.8332 10.3273 10.8497 10.2495 10.8819C10.1717 10.914 10.101 10.9612 10.0414 11.0206C9.98184 11.0801 9.93459 11.1507 9.90234 11.2284C9.87009 11.3061 9.85347 11.3893 9.85344 11.4734C9.85341 11.5576 9.86997 11.6408 9.90216 11.7186C9.93436 11.7963 9.98156 11.8669 10.0411 11.9264C10.6226 12.5072 11.4054 12.8426 12.2275 12.8631C13.0496 12.8836 13.8481 12.5877 14.4579 12.0365L14.5746 11.9264L16.3875 10.1149C16.9884 9.51447 17.3259 8.70025 17.3259 7.85127C17.3259 7.0023 16.9884 6.18744 16.3875 5.58703Z" fill="#5E5E5E"/>
</g>
<defs>
<clipPath id="clip0_1_65">
<rect width="21.3828" height="21.3591" fill="white" transform="matrix(-1 0 0 1 21.8757 0.109436)"/>
</clipPath>
</defs>
</svg>
