<svg width="258" height="31" viewBox="0 0 258 31" fill="none" xmlns="http://www.w3.org/2000/svg">
<g clip-path="url(#clip0_1_54)">
<path d="M30.3203 21.309C11.0141 27.3444 9.22664 6.95254 18.4862 2.2742C8.54784 1.66709 1.25444 13.2737 6.97414 22.5946C12.2775 31.237 25.5301 30.5585 30.3203 21.309Z" fill="#D8D8D8"/>
<ellipse cx="15.4444" cy="3.09654" rx="15.4444" ry="3.09654" transform="matrix(0.816953 -0.576704 0.577557 0.81635 0 25.5756)" stroke="#999999" stroke-width="1.14407"/>
<path d="M6.97414 22.5946C1.25444 13.2736 8.54784 1.66709 18.4862 2.2742C12.5085 5.29443 11.1348 14.8635 16.1064 19.6433L6.97414 22.5946Z" fill="#D8D8D8"/>
</g>
<path d="M48.0127 27.5062C46.3618 27.5062 44.8727 27.2189 43.5457 26.6442C42.2291 26.0695 41.1424 25.2492 40.2855 24.1834C39.4392 23.1071 38.901 21.8323 38.6711 20.359L42.5896 19.7634C42.924 21.1009 43.6084 22.1353 44.6429 22.8668C45.6878 23.5982 46.8894 23.9639 48.2478 23.9639C49.0524 23.9639 49.81 23.8385 50.5206 23.5878C51.2311 23.337 51.8058 22.9713 52.2447 22.4906C52.694 22.0099 52.9187 21.4196 52.9187 20.7195C52.9187 20.406 52.8664 20.1186 52.7619 19.8574C52.6574 19.5857 52.5007 19.3454 52.2917 19.1364C52.0932 18.9274 51.8319 18.7393 51.508 18.5721C51.1945 18.3945 50.8288 18.243 50.4108 18.1176L44.5802 16.3935C44.0786 16.2472 43.5352 16.0539 42.9501 15.8135C42.3754 15.5628 41.8268 15.2232 41.3043 14.7947C40.7923 14.3559 40.3691 13.8021 40.0348 13.1333C39.7108 12.4541 39.5489 11.6182 39.5489 10.6255C39.5489 9.17306 39.9146 7.95573 40.646 6.9735C41.3879 5.98082 42.3806 5.23893 43.6241 4.74782C44.878 4.2567 46.2677 4.01637 47.7933 4.02682C49.3398 4.03727 50.7191 4.30372 51.9312 4.82618C53.1433 5.3382 54.1569 6.08532 54.9719 7.06754C55.787 8.04977 56.3617 9.23576 56.696 10.6255L52.6365 11.3308C52.4693 10.5367 52.1454 9.86271 51.6647 9.3089C51.1945 8.74464 50.6146 8.31623 49.9249 8.02365C49.2457 7.73107 48.5195 7.57433 47.7463 7.55343C46.9939 7.54298 46.2938 7.65792 45.646 7.89826C45.0086 8.12814 44.4914 8.46252 44.0943 8.90138C43.7077 9.34025 43.5143 9.85226 43.5143 10.4374C43.5143 10.9912 43.6815 11.4458 44.0159 11.801C44.3503 12.1459 44.763 12.4228 45.2541 12.6318C45.7557 12.8303 46.2625 12.9975 46.7745 13.1333L50.8184 14.2618C51.3722 14.4081 51.9939 14.6067 52.6835 14.8574C53.3732 15.1082 54.0367 15.4583 54.6741 15.9076C55.3115 16.3569 55.834 16.9473 56.2415 17.6787C56.6595 18.4102 56.8685 19.3402 56.8685 20.4687C56.8685 21.639 56.6229 22.6682 56.1318 23.5564C55.6511 24.4342 54.998 25.1656 54.1726 25.7508C53.3471 26.3359 52.4014 26.7748 51.3356 27.0674C50.2802 27.3599 49.1726 27.5062 48.0127 27.5062ZM60.5746 27.036V4.46569H75.1513V8.00797H64.352V13.5722H73.2704V17.1145H64.352V23.4937H75.1513V27.036H60.5746ZM79.2252 27.036V4.46569H83.0496L93.5198 20.3746V4.46569H97.3442V27.036H93.5198L83.0496 11.1271V27.036H79.2252ZM107.462 27.036V8.00797H100.158V4.46569H118.544V8.00797H111.24V27.036H107.462ZM121.363 27.036V4.46569H130.689C130.909 4.46569 131.191 4.47614 131.536 4.49703C131.88 4.50748 132.199 4.53883 132.492 4.59108C133.798 4.78961 134.874 5.22325 135.721 5.892C136.577 6.56076 137.21 7.40714 137.617 8.43117C138.035 9.44474 138.244 10.5733 138.244 11.8167C138.244 13.6558 137.779 15.2388 136.849 16.5659C135.919 17.8825 134.493 18.6975 132.57 19.011L130.956 19.1521H125.141V27.036H121.363ZM134.326 27.036L129.874 17.8511L133.714 17.0048L138.605 27.036H134.326ZM125.141 15.6255H130.533C130.742 15.6255 130.977 15.615 131.238 15.5941C131.499 15.5732 131.739 15.5314 131.959 15.4687C132.586 15.312 133.077 15.0351 133.432 14.638C133.798 14.2409 134.054 13.7916 134.2 13.2901C134.357 12.7885 134.435 12.2974 134.435 11.8167C134.435 11.3361 134.357 10.8449 134.2 10.3434C134.054 9.83136 133.798 9.37682 133.432 8.97975C133.077 8.58268 132.586 8.30578 131.959 8.14904C131.739 8.08634 131.499 8.04977 131.238 8.03932C130.977 8.01842 130.742 8.00797 130.533 8.00797H125.141V15.6255ZM147.428 27.036V17.7884L139.748 4.46569H144.153L149.341 13.4625L154.513 4.46569H158.917L151.253 17.7884V27.036H147.428ZM166.44 27.036V4.46569H181.017V8.00797H170.218V13.5722H179.136V17.1145H170.218V23.4937H181.017V27.036H166.44ZM194.154 27.5062C191.897 27.5062 189.964 27.0151 188.355 26.0329C186.745 25.0402 185.507 23.6609 184.64 21.895C183.783 20.1291 183.355 18.081 183.355 15.7508C183.355 13.4207 183.783 11.3726 184.64 9.6067C185.507 7.84079 186.745 6.46671 188.355 5.48448C189.964 4.49181 191.897 3.99547 194.154 3.99547C196.756 3.99547 198.924 4.64855 200.659 5.9547C202.393 7.2504 203.61 9.00065 204.311 11.2054L200.502 12.2556C200.063 10.7822 199.316 9.63283 198.26 8.80734C197.205 7.9714 195.836 7.55343 194.154 7.55343C192.639 7.55343 191.374 7.89303 190.361 8.57223C189.358 9.25143 188.6 10.2075 188.088 11.4405C187.587 12.6631 187.331 14.0999 187.32 15.7508C187.32 17.4018 187.571 18.8438 188.072 20.0768C188.584 21.2994 189.347 22.2503 190.361 22.9295C191.374 23.6087 192.639 23.9483 194.154 23.9483C195.836 23.9483 197.205 23.5303 198.26 22.6944C199.316 21.8584 200.063 20.709 200.502 19.2461L204.311 20.2963C203.61 22.501 202.393 24.2565 200.659 25.5627C198.924 26.8584 196.756 27.5062 194.154 27.5062ZM217.924 27.5062C215.667 27.5062 213.734 27.0151 212.125 26.0329C210.516 25.0402 209.277 23.6609 208.41 21.895C207.553 20.1291 207.125 18.081 207.125 15.7508C207.125 13.4207 207.553 11.3726 208.41 9.6067C209.277 7.84079 210.516 6.46671 212.125 5.48448C213.734 4.49181 215.667 3.99547 217.924 3.99547C220.181 3.99547 222.114 4.49181 223.724 5.48448C225.343 6.46671 226.581 7.84079 227.438 9.6067C228.306 11.3726 228.739 13.4207 228.739 15.7508C228.739 18.081 228.306 20.1291 227.438 21.895C226.581 23.6609 225.343 25.0402 223.724 26.0329C222.114 27.0151 220.181 27.5062 217.924 27.5062ZM217.924 23.9483C219.439 23.9587 220.698 23.6243 221.702 22.9451C222.715 22.2659 223.473 21.3098 223.974 20.0768C224.486 18.8438 224.742 17.4018 224.742 15.7508C224.742 14.0999 224.486 12.6683 223.974 11.4562C223.473 10.2337 222.715 9.28278 221.702 8.60358C220.698 7.92438 219.439 7.57433 217.924 7.55343C216.409 7.54298 215.15 7.87736 214.147 8.55656C213.144 9.23576 212.386 10.1919 211.874 11.4249C211.373 12.6579 211.122 14.0999 211.122 15.7508C211.122 17.4018 211.373 18.8386 211.874 20.0612C212.376 21.2733 213.128 22.2189 214.131 22.8981C215.145 23.5773 216.409 23.9274 217.924 23.9483ZM232.486 27.036V4.46569H235.887L243.693 20.453L251.498 4.46569H254.9V27.036H251.373V12.5691L244.445 27.036H242.94L236.028 12.5691V27.036H232.486Z" fill="#D8D8D8"/>
<defs>
<clipPath id="clip0_1_54">
<rect width="30.3178" height="30.2842" fill="white" transform="translate(0 0.393921)"/>
</clipPath>
</defs>
</svg>
